{
	"asset":{
		"generator":"Khronos glTF Blender I/O v3.6.27",
		"version":"2.0"
	},
	"extensionsUsed":[
		"KHR_materials_specular",
		"KHR_materials_ior"
	],
	"scene":0,
	"scenes":[
		{
			"name":"Scene",
			"nodes":[
				0
			]
		}
	],
	"nodes":[
		{
			"mesh":0,
			"name":"TQ_ARD-node"
		}
	],
	"materials":[
		{
			"doubleSided":true,
			"extensions":{
				"KHR_materials_specular":{
					"specularColorFactor":[
						0,
						0,
						0
					]
				},
				"KHR_materials_ior":{
					"ior":0
				}
			},
			"name":"TQ_ARD_front",
			"pbrMetallicRoughness":{
				"baseColorTexture":{
					"index":0
				},
				"metallicFactor":0,
				"roughnessFactor":0.5
			}
		},
		{
			"doubleSided":true,
			"extensions":{
				"KHR_materials_specular":{
					"specularColorFactor":[
						0,
						0,
						0
					]
				},
				"KHR_materials_ior":{
					"ior":0
				}
			},
			"name":"TQ_ARD_back",
			"pbrMetallicRoughness":{
				"baseColorFactor":[
					0.996078372001648,
					0.9019607901573181,
					0.6627451181411743,
					1
				],
				"metallicFactor":0,
				"roughnessFactor":0.5
			}
		},
		{
			"doubleSided":true,
			"extensions":{
				"KHR_materials_specular":{
					"specularColorFactor":[
						0,
						0,
						0
					]
				},
				"KHR_materials_ior":{
					"ior":0
				}
			},
			"name":"TQ_ARD_edge",
			"pbrMetallicRoughness":{
				"baseColorTexture":{
					"index":1
				},
				"metallicFactor":0,
				"roughnessFactor":0.5
			}
		},
		{
			"doubleSided":true,
			"name":"Material.001",
			"normalTexture":{
				"index":2
			},
			"pbrMetallicRoughness":{
				"baseColorFactor":[
					0.00719347083941102,
					0.00719347083941102,
					0.00719347083941102,
					1
				],
				"metallicFactor":0,
				"roughnessFactor":0.5
			}
		}
	],
	"meshes":[
		{
			"name":"TQ_ARD-geom",
			"primitives":[
				{
					"attributes":{
						"POSITION":0,
						"NORMAL":1,
						"TEXCOORD_0":2,
						"TEXCOORD_1":3
					},
					"indices":4,
					"material":0
				},
				{
					"attributes":{
						"POSITION":5,
						"NORMAL":6,
						"TEXCOORD_0":7,
						"TEXCOORD_1":8
					},
					"indices":9,
					"material":1
				},
				{
					"attributes":{
						"POSITION":10,
						"NORMAL":11,
						"TEXCOORD_0":12,
						"TEXCOORD_1":13
					},
					"indices":14,
					"material":2
				},
				{
					"attributes":{
						"POSITION":15,
						"NORMAL":16,
						"TEXCOORD_0":17,
						"TEXCOORD_1":18
					},
					"indices":19,
					"material":3
				}
			]
		}
	],
	"textures":[
		{
			"sampler":0,
			"source":0
		},
		{
			"sampler":0,
			"source":1
		},
		{
			"sampler":0,
			"source":2
		}
	],
	"images":[
		{
			"bufferView":5,
			"mimeType":"image/jpeg",
			"name":"1"
		},
		{
			"bufferView":16,
			"mimeType":"image/png",
			"name":"TQ_ARD-I1.png"
		},
		{
			"bufferView":22,
			"mimeType":"image/png",
			"name":"aaa"
		}
	],
	"accessors":[
		{
			"bufferView":0,
			"componentType":5126,
			"count":1090,
			"max":[
				0.04159422963857651,
				0.14280009269714355,
				0.11006288975477219
			],
			"min":[
				-0.03102046251296997,
				0.0012126415967941284,
				-0.1095236986875534
			],
			"type":"VEC3"
		},
		{
			"bufferView":1,
			"componentType":5126,
			"count":1090,
			"type":"VEC3"
		},
		{
			"bufferView":2,
			"componentType":5126,
			"count":1090,
			"type":"VEC2"
		},
		{
			"bufferView":3,
			"componentType":5126,
			"count":1090,
			"type":"VEC2"
		},
		{
			"bufferView":4,
			"componentType":5123,
			"count":3486,
			"type":"SCALAR"
		},
		{
			"bufferView":6,
			"componentType":5126,
			"count":952,
			"max":[
				0.04100979119539261,
				0.14177387952804565,
				0.10911410301923752
			],
			"min":[
				-0.030288368463516235,
				0.001505434513092041,
				-0.10857494920492172
			],
			"type":"VEC3"
		},
		{
			"bufferView":7,
			"componentType":5126,
			"count":952,
			"type":"VEC3"
		},
		{
			"bufferView":8,
			"componentType":5126,
			"count":952,
			"type":"VEC2"
		},
		{
			"bufferView":9,
			"componentType":5126,
			"count":952,
			"type":"VEC2"
		},
		{
			"bufferView":10,
			"componentType":5123,
			"count":3486,
			"type":"SCALAR"
		},
		{
			"bufferView":11,
			"componentType":5126,
			"count":1604,
			"max":[
				0.041567035019397736,
				0.14280009269714355,
				0.11006288975477219
			],
			"min":[
				-0.03102041780948639,
				0.0012126415967941284,
				-0.1095236986875534
			],
			"type":"VEC3"
		},
		{
			"bufferView":12,
			"componentType":5126,
			"count":1604,
			"type":"VEC3"
		},
		{
			"bufferView":13,
			"componentType":5126,
			"count":1604,
			"type":"VEC2"
		},
		{
			"bufferView":14,
			"componentType":5126,
			"count":1604,
			"type":"VEC2"
		},
		{
			"bufferView":15,
			"componentType":5123,
			"count":3270,
			"type":"SCALAR"
		},
		{
			"bufferView":17,
			"componentType":5126,
			"count":18889,
			"max":[
				0.01594967395067215,
				0.1526312530040741,
				0.06600460410118103
			],
			"min":[
				-0.002965290565043688,
				0.1335286945104599,
				-0.06647271662950516
			],
			"type":"VEC3"
		},
		{
			"bufferView":18,
			"componentType":5126,
			"count":18889,
			"type":"VEC3"
		},
		{
			"bufferView":19,
			"componentType":5126,
			"count":18889,
			"type":"VEC2"
		},
		{
			"bufferView":20,
			"componentType":5126,
			"count":18889,
			"type":"VEC2"
		},
		{
			"bufferView":21,
			"componentType":5123,
			"count":111936,
			"type":"SCALAR"
		}
	],
	"bufferViews":[
		{
			"buffer":0,
			"byteLength":13080,
			"byteOffset":0,
			"target":34962
		},
		{
			"buffer":0,
			"byteLength":13080,
			"byteOffset":13080,
			"target":34962
		},
		{
			"buffer":0,
			"byteLength":8720,
			"byteOffset":26160,
			"target":34962
		},
		{
			"buffer":0,
			"byteLength":8720,
			"byteOffset":34880,
			"target":34962
		},
		{
			"buffer":0,
			"byteLength":6972,
			"byteOffset":43600,
			"target":34963
		},
		{
			"buffer":0,
			"byteLength":363113,
			"byteOffset":50572
		},
		{
			"buffer":0,
			"byteLength":11424,
			"byteOffset":413688,
			"target":34962
		},
		{
			"buffer":0,
			"byteLength":11424,
			"byteOffset":425112,
			"target":34962
		},
		{
			"buffer":0,
			"byteLength":7616,
			"byteOffset":436536,
			"target":34962
		},
		{
			"buffer":0,
			"byteLength":7616,
			"byteOffset":444152,
			"target":34962
		},
		{
			"buffer":0,
			"byteLength":6972,
			"byteOffset":451768,
			"target":34963
		},
		{
			"buffer":0,
			"byteLength":19248,
			"byteOffset":458740,
			"target":34962
		},
		{
			"buffer":0,
			"byteLength":19248,
			"byteOffset":477988,
			"target":34962
		},
		{
			"buffer":0,
			"byteLength":12832,
			"byteOffset":497236,
			"target":34962
		},
		{
			"buffer":0,
			"byteLength":12832,
			"byteOffset":510068,
			"target":34962
		},
		{
			"buffer":0,
			"byteLength":6540,
			"byteOffset":522900,
			"target":34963
		},
		{
			"buffer":0,
			"byteLength":767,
			"byteOffset":529440
		},
		{
			"buffer":0,
			"byteLength":226668,
			"byteOffset":530208,
			"target":34962
		},
		{
			"buffer":0,
			"byteLength":226668,
			"byteOffset":756876,
			"target":34962
		},
		{
			"buffer":0,
			"byteLength":151112,
			"byteOffset":983544,
			"target":34962
		},
		{
			"buffer":0,
			"byteLength":151112,
			"byteOffset":1134656,
			"target":34962
		},
		{
			"buffer":0,
			"byteLength":223872,
			"byteOffset":1285768,
			"target":34963
		},
		{
			"buffer":0,
			"byteLength":29130,
			"byteOffset":1509640
		}
	],
	"samplers":[
		{
			"magFilter":9729,
			"minFilter":9987
		}
	],
	"buffers":[
		{
			"byteLength":1538772,
			"uri":"data:application/octet-stream;base64,"
		}
	]
}
